Coordinates
version=1
nRows=17
nColumns=27
inDegrees=yes

Units are S.I. units (second, meters, Newtons, ...)
If the header above contains a line with 'inDegrees', this indicates whether rotational values are in degrees (yes) or radians (no).

endheader
time	pelvis_rotation	pelvis_tilt	pelvis_list	pelvis_tx	pelvis_ty	pelvis_tz	hip_flexion_r	hip_adduction_r	hip_rotation_r	knee_angle_r	knee_rotation_r	knee_adduction_r	knee_angle_r_beta	ankle_angle_r	subtalar_angle_r	mtp_angle_r	hip_flexion_l	hip_adduction_l	hip_rotation_l	knee_angle_l	knee_rotation_l	knee_adduction_l	knee_angle_l_beta	ankle_angle_l	subtalar_angle_l	mtp_angle_l
      8.41500000	      6.97146645	    -44.33742718	      6.41469479	     -0.14100971	      0.77315961	     -1.20938627	     97.48044534	    -13.83334251	    -12.78852904	     67.35232308	     -7.66624202	      9.37368494	      1.17551980	     11.00381449	     -4.72986151	      0.00000000	     95.38215687	     -5.23699023	    -16.13249492	     62.80717862	     -6.37899611	     -9.60861097	      1.09619206	      9.07272907	      1.84933946	      0.00000000
      8.42000000	      6.94039487	    -44.29833304	      6.57058178	     -0.14115924	      0.77396942	     -1.20950498	     97.37352380	    -13.85282361	    -12.61938943	     67.16793973	     -7.56399334	      9.37367162	      1.17230170	     10.95581193	     -4.61289340	      0.00000000	     95.15289341	     -5.22558234	    -16.32528919	     62.55059543	     -6.36416266	     -9.60184605	      1.09171384	      9.04626131	      1.85926431	      0.00000000
      8.42500000	      6.24777505	    -44.21328863	      5.98431004	     -0.14119198	      0.77491368	     -1.20895882	     96.95316803	    -13.25774802	    -12.85441163	     66.75831304	     -7.57097704	      9.36632569	      1.16515237	     10.80559458	     -4.67347987	      0.00000000	     94.92047848	     -5.84642090	    -16.23613101	     62.47564769	     -6.28095569	     -9.60270749	      1.09040575	      9.11297387	      2.10161806	      0.00000000
      8.43000000	      6.80541598	    -44.22506448	      6.43834765	     -0.14139194	      0.77568144	     -1.20955272	     96.96022002	    -13.84783964	    -12.82635136	     66.68517269	     -7.47910143	      9.36927794	      1.16387583	     10.90855924	     -4.30335446	      0.00000000	     94.79498895	     -5.25145043	    -16.22716678	     62.11071018	     -6.24547073	     -9.59434707	      1.08403639	      8.91437071	      1.80972128	      0.00000000
      8.43500000	      6.45271566	    -44.12477777	      6.19332943	     -0.14142701	      0.77657202	     -1.20929149	     96.63584594	    -13.57418302	    -12.89776681	     66.38340099	     -7.41731605	      9.37216355	      1.15860892	     10.81212024	     -4.33511956	      0.00000000	     94.53270905	     -5.54502884	    -16.23412646	     61.94763930	     -6.18197555	     -9.59525120	      1.08119027	      8.90397269	      1.88852578	      0.00000000
      8.44000000	      6.21609558	    -44.10299011	      5.92824215	     -0.14148679	      0.77748503	     -1.20913579	     96.36362675	    -13.41699625	    -13.04907727	     66.08668875	     -7.32434995	      9.37993989	      1.15343031	     10.77862554	     -4.29169194	      0.00000000	     94.37935234	     -5.72347811	    -16.06503924	     61.77570447	     -6.07151261	     -9.59500916	      1.07818944	      8.86760279	      1.92936939	      0.00000000
      8.44500000	      6.44183420	    -44.36188448	      6.43935617	     -0.14252782	      0.77727733	     -1.20933247	     96.86188669	    -13.63579175	    -11.97015838	     66.23235495	     -6.61382290	      8.89018733	      1.15597267	     10.76970870	     -4.10056915	      0.00000000	     94.60633406	     -5.56186610	    -15.89962677	     61.69017833	     -5.61629125	     -9.24707171	      1.07669673	      8.73627120	      1.74009626	      0.00000000
      8.45000000	      6.34106009	    -43.97385216	      6.23168072	     -0.14168226	      0.77914334	     -1.20943047	     96.05789551	    -13.64232022	    -12.94396137	     65.71571387	     -7.19594991	      9.37203296	      1.14695558	     10.72186275	     -3.97938017	      0.00000000	     93.90969223	     -5.50540843	    -16.27023047	     61.23735474	     -6.00332145	     -9.58858314	      1.06879347	      8.63648662	      1.73548231	      0.00000000
      8.45500000	      6.46476037	    -43.95666823	      6.42744484	     -0.14183802	      0.77993538	     -1.20963604	     95.97507668	    -13.81387396	    -12.82312584	     65.55868915	     -7.05588266	      9.37973758	      1.14421498	     10.66178434	     -3.92316263	      0.00000000	     93.73271976	     -5.33857118	    -16.32609521	     60.96513975	     -5.94055364	     -9.58511535	      1.06404242	      8.53297843	      1.62303918	      0.00000000
      8.46000000	      5.84647874	    -44.23062634	      5.77168547	     -0.14270546	      0.78002103	     -1.20886265	     96.03613161	    -13.24179188	    -12.47406890	     65.35536544	     -6.46081226	      8.89347098	      1.14066631	     10.54717971	     -4.00846822	      0.00000000	     94.07108036	     -5.97827414	    -15.49603058	     61.12534235	     -5.34632455	     -9.23931040	      1.06683848	      8.55366735	      1.69456428	      0.00000000
      8.46500000	      6.43158653	    -43.90559904	      6.36233011	     -0.14198999	      0.78168061	     -1.20966112	     95.59675135	    -13.88819290	    -12.98387605	     65.09688996	     -6.90275569	      9.38301523	      1.13615506	     10.55497685	     -3.75778580	      0.00000000	     93.39511599	     -5.27720723	    -16.17277391	     60.50046249	     -5.77767790	     -9.58047602	      1.05593227	      8.35301994	      1.47386336	      0.00000000
      8.47000000	      6.39450970	    -43.87885459	      6.31640736	     -0.14203838	      0.78259757	     -1.20966649	     95.39271202	    -13.90726633	    -13.03729112	     64.85252353	     -6.79851792	      9.38662367	      1.13189006	     10.50164548	     -3.68091578	      0.00000000	     93.21733345	     -5.26361388	    -16.11007598	     60.25690115	     -5.69975515	     -9.57799361	      1.05168132	      8.23428541	      1.36682954	      0.00000000
      8.47500000	      5.77141583	    -43.77208784	      5.80197613	     -0.14196913	      0.78361533	     -1.20915615	     94.95911209	    -13.37049876	    -13.22591540	     64.44003926	     -6.78000232	      9.38664178	      1.12469086	     10.32531161	     -3.77747707	      0.00000000	     92.93641320	     -5.82101584	    -16.02281687	     60.13555356	     -5.57513974	     -9.58104525	      1.04956341	      8.23476540	      1.47667218	      0.00000000
      8.48000000	      6.33579045	    -43.81751463	      6.30250833	     -0.14213363	      0.78434785	     -1.20970290	     95.02737669	    -13.96340388	    -13.10298006	     64.40444824	     -6.61766490	      9.39287100	      1.12406967	     10.38484042	     -3.52428311	      0.00000000	     92.84627812	     -5.23064272	    -16.05806563	     59.78314871	     -5.55933103	     -9.57222540	      1.04341278	      8.05137800	      1.27009312	      0.00000000
      8.48500000	      5.90424657	    -44.00127529	      6.05526015	     -0.14281743	      0.78449727	     -1.20918683	     95.13993981	    -13.55743025	    -12.54605000	     64.28731141	     -6.15198888	      8.89965134	      1.12202525	     10.44476364	     -3.21859232	      0.00000000	     92.99089212	     -5.70264474	    -15.62900862	     59.82222954	     -5.04393813	     -9.21688417	      1.04409487	      7.99618235	      1.31129804	      0.00000000
      8.49000000	      6.23216749	    -43.76539098	      6.27858450	     -0.14217862	      0.78611228	     -1.20968025	     94.66426712	    -13.96829722	    -13.10179858	     63.94945597	     -6.39644111	      9.39698898	      1.11612856	     10.27126202	     -3.40118353	      0.00000000	     92.46699339	     -5.24456443	    -16.04137083	     59.30579060	     -5.41846772	     -9.56878818	      1.03508131	      7.90243243	      1.16865655	      0.00000000
      8.49500000	      5.87343574	    -44.02102787	      6.09297214	     -0.14298381	      0.78619633	     -1.20928037	     94.88350351	    -13.64076062	    -12.43395779	     63.86208532	     -5.80811577	      8.92361884	      1.11460366	     10.18315812	     -3.34306206	      0.00000000	     92.70737237	     -5.63763419	    -15.61196242	     59.35149339	     -4.93502705	     -9.21277445	      1.03587898	      7.88636277	      1.23027423	      0.00000000
